<?xml version="1.0" encoding="utf-8"?>
<!-- Generator: Adobe Illustrator 23.0.1, SVG Export Plug-In . SVG Version: 6.00 Build 0)  -->
<svg version="1.1" id="Camada_1" xmlns="http://www.w3.org/2000/svg" xmlns:xlink="http://www.w3.org/1999/xlink" x="0px" y="0px"
	 viewBox="0 0 1280 800" style="enable-background:new 0 0 1280 800;" xml:space="preserve">
<style type="text/css">
	.st0{stroke:#000000;stroke-width:0.25;stroke-miterlimit:10;}
	.st1{opacity:0.88;fill:url(#SVGID_1_);stroke:#FFFFFF;stroke-width:0.25;stroke-miterlimit:10;}
	.st2{display:none;}
	.st3{opacity:0.91;}
</style>
<g id="XXII">
	<g>
		<path class="st0" d="M471.2,292.54l-10.82-13.91l-10.78,13.91h-4.07l12.74-16.26l-11.93-15.35h4.07l10.11,12.91l10.06-12.91h3.83
			l-11.88,15.26l12.79,16.35H471.2z"/>
		<path class="st0" d="M498.4,292.54l-10.82-13.91l-10.78,13.91h-4.07l12.74-16.26l-11.93-15.35h4.07l10.11,12.91l10.06-12.91h3.83
			l-11.88,15.26l12.79,16.35H498.4z"/>
		<path class="st0" d="M504.53,260.94h3.54v31.61h-3.54V260.94z"/>
		<path class="st0" d="M515.88,260.94h3.54v31.61h-3.54V260.94z"/>
	</g>
</g>
<g id="SORRISO">
	
		<linearGradient id="SVGID_1_" gradientUnits="userSpaceOnUse" x1="510.3261" y1="858.4874" x2="1069.0131" y2="946.9973" gradientTransform="matrix(0.9974 -0.0728 0.0728 0.9974 -179.2313 -318.0923)">
		<stop  offset="0" style="stop-color:#F8F0DC;stop-opacity:0"/>
		<stop  offset="0.0104" style="stop-color:#C18CA8;stop-opacity:0.9648"/>
		<stop  offset="0.0108" style="stop-color:#BF88A6"/>
		<stop  offset="0.115" style="stop-color:#CC7CA2"/>
		<stop  offset="0.3165" style="stop-color:#DE6A9C"/>
		<stop  offset="0.5261" style="stop-color:#E95F98"/>
		<stop  offset="0.7553" style="stop-color:#ED5C97"/>
		<stop  offset="0.8026" style="stop-color:#EC5590"/>
		<stop  offset="0.8728" style="stop-color:#EA417D"/>
		<stop  offset="0.957" style="stop-color:#E5205E"/>
		<stop  offset="0.9634" style="stop-color:#E51D5B"/>
	</linearGradient>
	<path class="st1" d="M940.56,402.18c9.12-6.37,21.08,2.22,18.02,12.91c-39.09,136.45-159.84,240.56-309.64,251.48
		c-55.27,4.03-104.81-8.16-104.81-8.16c-32.17-8.38-57.36-20.73-74.56-30.71c-1.09-0.63-1.88-0.84-2.11-0.95
		c-61.08-27.34-65.76-81.48-65.76-81.48c-3.31-38.26,21.57-71.95,48.12-87.54c35-20.55,75.96-11.23,89.86-8.41
		c28.14,5.71,34.03,14.58,68.3,26.76c0,0,37.52,13.34,88.63,17.99C754.03,499.29,845.61,468.46,940.56,402.18z"/>
</g>
<g id="BRILHO_SOBREIMPOSIÇÃO_2" class="st2">
</g>
<g id="JAO">
	<g>
		<path d="M549.91,261.47c-1.62,0-3.15,0.77-4.11,2.08l-25.89,35.34h0.16v73.63c0,8.16-1.83,14.35-5.51,18.59
			c-3.66,4.24-9.01,6.36-16.02,6.36c-9.16,0-17.77-4.44-25.82-13.33c-2.08-2.29-5.69-2.27-7.69,0.1l-19.71,23.36
			c-1.64,1.94-1.63,4.81,0.09,6.67c6.05,6.53,13.49,11.65,22.3,15.36c10.27,4.31,21.69,6.48,34.25,6.48
			c21.68,0,38.11-5.54,49.29-16.63c11.16-11.09,16.75-27.73,16.75-49.9V266.56c0-2.81-2.28-5.09-5.09-5.09H549.91z"/>
		<path d="M690.3,399.43h-65.54c-2.07,0-3.94,1.26-4.72,3.18l-10.88,26.9c-0.78,1.92-2.65,3.18-4.72,3.18h-38.17
			c-3.68,0-6.14-3.78-4.66-7.15L632.7,264.5c0.81-1.85,2.64-3.04,4.66-3.04h41.07c2.01,0,3.84,1.19,4.66,3.03l71.32,161.05
			c1.49,3.37-0.97,7.15-4.66,7.15h-39.14c-2.07,0-3.94-1.26-4.72-3.18l-10.88-26.9C694.24,400.69,692.37,399.43,690.3,399.43z
			 M676.73,356.72l-14.48-36.05c-1.71-4.26-7.74-4.26-9.45,0l-14.48,36.05c-1.34,3.35,1.12,6.99,4.72,6.99h28.97
			C675.61,363.71,678.08,360.07,676.73,356.72z"/>
		<path d="M781.84,424.62c-13.16-7.66-23.5-18.26-31.01-31.8c-7.51-13.53-11.27-28.78-11.27-45.74c0-16.96,3.75-32.21,11.27-45.74
			c7.51-13.53,17.84-24.13,31.01-31.8c13.16-7.66,27.99-11.5,44.5-11.5c16.51,0,31.34,3.83,44.5,11.5
			c13.16,7.67,23.5,18.27,31.01,31.8c7.51,13.54,11.26,28.78,11.26,45.74c0,16.96-3.76,32.21-11.26,45.74
			c-7.51,13.54-17.84,24.14-31.01,31.8c-13.16,7.67-27.99,11.5-44.5,11.5C809.83,436.12,795,432.29,781.84,424.62z M847.75,389.89
			c6.39-4.07,11.45-9.82,15.17-17.25c3.72-7.42,5.58-15.94,5.58-25.56c0-9.62-1.86-18.14-5.58-25.56
			c-3.72-7.42-8.78-13.17-15.17-17.25c-6.39-4.07-13.53-6.12-21.41-6.12c-7.88,0-15.02,2.04-21.41,6.12
			c-6.4,4.08-11.45,9.83-15.17,17.25c-3.72,7.42-5.58,15.94-5.58,25.56c0,9.62,1.86,18.14,5.58,25.56
			c3.72,7.42,8.77,13.17,15.17,17.25c6.39,4.08,13.53,6.12,21.41,6.12C834.22,396,841.36,393.97,847.75,389.89z"/>
	</g>
</g>
<g id="JORNADA_ACADÊMICA_DE_ODONTOLOGIA">
	<g>
		<path class="st3" d="M356.72,701.82c-1.16-0.51-2.11-1.23-2.84-2.16l2.28-2.58c1.19,1.55,2.62,2.32,4.28,2.32
			c2.24,0,3.35-1.25,3.35-3.74v-10.5h-7.66V682h11.66v13.46c0,2.38-0.62,4.16-1.84,5.35c-1.23,1.19-3.04,1.78-5.41,1.78
			C359.15,702.59,357.88,702.34,356.72,701.82z"/>
		<path class="st3" d="M376.98,701.24c-1.76-0.9-3.15-2.15-4.15-3.74c-1-1.59-1.51-3.38-1.51-5.35c0-1.97,0.5-3.75,1.51-5.35
			c1-1.59,2.39-2.84,4.15-3.74c1.76-0.9,3.74-1.35,5.94-1.35s4.17,0.45,5.94,1.35c1.76,0.9,3.15,2.14,4.15,3.73
			c1,1.58,1.51,3.37,1.51,5.36c0,1.99-0.5,3.78-1.51,5.37c-1.01,1.59-2.39,2.83-4.15,3.73c-1.76,0.9-3.74,1.35-5.94,1.35
			S378.74,702.14,376.98,701.24z M386.79,698.37c1.15-0.61,2.05-1.46,2.71-2.55c0.66-1.09,0.98-2.32,0.98-3.67
			c0-1.35-0.33-2.58-0.98-3.67c-0.66-1.09-1.56-1.94-2.71-2.55c-1.15-0.61-2.44-0.91-3.88-0.91s-2.73,0.3-3.88,0.91
			c-1.15,0.61-2.05,1.46-2.71,2.55c-0.66,1.09-0.98,2.32-0.98,3.67c0,1.35,0.33,2.58,0.98,3.67c0.66,1.09,1.56,1.94,2.71,2.55
			c1.15,0.61,2.44,0.91,3.88,0.91S385.64,698.98,386.79,698.37z"/>
		<path class="st3" d="M412.32,702.3l-4.4-5.95c-0.18,0.02-0.46,0.03-0.83,0.03h-4.86v5.92h-4V682h8.86c1.87,0,3.49,0.29,4.88,0.87
			c1.38,0.58,2.45,1.41,3.18,2.49c0.74,1.08,1.11,2.37,1.11,3.86c0,1.53-0.39,2.84-1.18,3.94c-0.79,1.1-1.92,1.92-3.4,2.46
			l4.95,6.67H412.32z M410.87,686.24c-0.9-0.7-2.22-1.04-3.97-1.04h-4.68v8.09h4.68c1.74,0,3.07-0.35,3.97-1.06s1.35-1.71,1.35-3
			C412.23,687.93,411.78,686.93,410.87,686.24z"/>
		<path class="st3" d="M439.33,682v20.3h-3.29l-11.87-13.75v13.75h-3.97V682h3.29l11.87,13.75V682H439.33z"/>
		<path class="st3" d="M458.55,697.6h-10.77l-2.12,4.7h-4.12l9.69-20.3h3.94l9.72,20.3h-4.18L458.55,697.6z M457.23,694.65
			l-4.06-8.87l-4.03,8.87H457.23z"/>
		<path class="st3" d="M467.1,682h9.41c2.3,0,4.34,0.42,6.12,1.26c1.78,0.84,3.17,2.03,4.15,3.57s1.48,3.31,1.48,5.32
			c0,2.01-0.49,3.79-1.48,5.32s-2.37,2.73-4.15,3.57s-3.83,1.26-6.12,1.26h-9.41V682z M476.33,699.11c1.58,0,2.97-0.28,4.17-0.86
			c1.2-0.57,2.12-1.38,2.77-2.44c0.65-1.05,0.97-2.28,0.97-3.67c0-1.39-0.32-2.61-0.97-3.67c-0.65-1.05-1.57-1.87-2.77-2.44
			c-1.2-0.57-2.59-0.86-4.17-0.86h-5.23v13.92H476.33z"/>
		<path class="st3" d="M505.64,697.6h-10.77l-2.12,4.7h-4.12l9.69-20.3h3.94l9.72,20.3h-4.18L505.64,697.6z M504.32,694.65
			l-4.06-8.87l-4.03,8.87H504.32z"/>
		<path class="st3" d="M536.12,697.6h-10.77l-2.12,4.7h-4.12l9.69-20.3h3.94l9.72,20.3h-4.18L536.12,697.6z M534.8,694.65
			l-4.06-8.87l-4.03,8.87H534.8z"/>
		<path class="st3" d="M548.44,701.24c-1.75-0.9-3.13-2.14-4.12-3.73c-1-1.58-1.49-3.37-1.49-5.37c0-1.99,0.5-3.78,1.51-5.36
			s2.38-2.83,4.14-3.73c1.75-0.9,3.72-1.35,5.89-1.35c1.76,0,3.37,0.29,4.83,0.87s2.69,1.42,3.69,2.52l-2.58,2.29
			c-1.56-1.58-3.48-2.38-5.75-2.38c-1.48,0-2.8,0.3-3.97,0.91c-1.17,0.61-2.08,1.46-2.74,2.54c-0.66,1.08-0.98,2.31-0.98,3.68
			c0,1.37,0.33,2.6,0.98,3.68s1.57,1.93,2.74,2.54c1.17,0.61,2.49,0.91,3.97,0.91c2.28,0,4.19-0.8,5.75-2.41l2.58,2.32
			c-1,1.1-2.24,1.94-3.71,2.52c-1.47,0.58-3.08,0.87-4.84,0.87C552.16,702.59,550.2,702.14,548.44,701.24z"/>
		<path class="st3" d="M579.71,697.6h-10.77l-2.12,4.7h-4.12l9.69-20.3h3.94l9.72,20.3h-4.18L579.71,697.6z M578.38,694.65
			l-4.06-8.87l-4.03,8.87H578.38z"/>
		<path class="st3" d="M588.26,682h9.41c2.3,0,4.34,0.42,6.12,1.26c1.78,0.84,3.17,2.03,4.15,3.57s1.48,3.31,1.48,5.32
			c0,2.01-0.49,3.79-1.48,5.32s-2.37,2.73-4.15,3.57s-3.83,1.26-6.12,1.26h-9.41V682z M597.49,699.11c1.58,0,2.97-0.28,4.17-0.86
			c1.2-0.57,2.12-1.38,2.77-2.44c0.65-1.05,0.97-2.28,0.97-3.67c0-1.39-0.32-2.61-0.97-3.67c-0.65-1.05-1.57-1.87-2.77-2.44
			c-1.2-0.57-2.59-0.86-4.17-0.86h-5.23v13.92H597.49z"/>
		<path class="st3" d="M629.29,699.14v3.16h-16.15V682h15.72v3.16h-11.72v5.28h10.4v3.1h-10.4v5.6H629.29z M623.75,680.35
			l-2.71-2.15l-2.71,2.15h-3.17l4.12-3.97h3.51l4.12,3.97H623.75z"/>
		<path class="st3" d="M653.01,702.3l-0.03-13.46l-7.07,11.14h-1.78l-7.08-10.96v13.28h-3.81V682h3.29l8.55,13.46l8.4-13.46h3.29
			l0.03,20.3H653.01z"/>
		<path class="st3" d="M662.08,682h4v20.3h-4V682z"/>
		<path class="st3" d="M675.44,701.24c-1.75-0.9-3.13-2.14-4.12-3.73c-1-1.58-1.49-3.37-1.49-5.37c0-1.99,0.5-3.78,1.51-5.36
			s2.38-2.83,4.14-3.73c1.75-0.9,3.72-1.35,5.89-1.35c1.76,0,3.37,0.29,4.83,0.87s2.69,1.42,3.69,2.52l-2.58,2.29
			c-1.56-1.58-3.48-2.38-5.75-2.38c-1.48,0-2.8,0.3-3.97,0.91c-1.17,0.61-2.08,1.46-2.74,2.54c-0.66,1.08-0.98,2.31-0.98,3.68
			c0,1.37,0.33,2.6,0.98,3.68s1.57,1.93,2.74,2.54c1.17,0.61,2.49,0.91,3.97,0.91c2.28,0,4.19-0.8,5.75-2.41l2.58,2.32
			c-1,1.1-2.24,1.94-3.71,2.52c-1.47,0.58-3.08,0.87-4.84,0.87C679.16,702.59,677.2,702.14,675.44,701.24z"/>
		<path class="st3" d="M706.71,697.6h-10.77l-2.12,4.7h-4.12l9.69-20.3h3.94l9.72,20.3h-4.18L706.71,697.6z M705.39,694.65
			l-4.06-8.87l-4.03,8.87H705.39z"/>
		<path class="st3" d="M723.23,682h9.41c2.3,0,4.34,0.42,6.12,1.26c1.78,0.84,3.17,2.03,4.15,3.57s1.48,3.31,1.48,5.32
			c0,2.01-0.49,3.79-1.48,5.32s-2.37,2.73-4.15,3.57s-3.83,1.26-6.12,1.26h-9.41V682z M732.46,699.11c1.58,0,2.97-0.28,4.17-0.86
			c1.2-0.57,2.12-1.38,2.77-2.44c0.65-1.05,0.97-2.28,0.97-3.67c0-1.39-0.32-2.61-0.97-3.67c-0.65-1.05-1.57-1.87-2.77-2.44
			c-1.2-0.57-2.59-0.86-4.17-0.86h-5.23v13.92H732.46z"/>
		<path class="st3" d="M764.26,699.14v3.16h-16.15V682h15.72v3.16h-11.72v5.28h10.4v3.1h-10.4v5.6H764.26z"/>
		<path class="st3" d="M780.28,701.24c-1.76-0.9-3.15-2.15-4.15-3.74c-1-1.59-1.51-3.38-1.51-5.35c0-1.97,0.5-3.75,1.51-5.35
			c1-1.59,2.39-2.84,4.15-3.74c1.76-0.9,3.74-1.35,5.94-1.35s4.17,0.45,5.94,1.35c1.76,0.9,3.15,2.14,4.15,3.73
			c1,1.58,1.51,3.37,1.51,5.36c0,1.99-0.5,3.78-1.51,5.37c-1.01,1.59-2.39,2.83-4.15,3.73c-1.76,0.9-3.74,1.35-5.94,1.35
			S782.05,702.14,780.28,701.24z M790.1,698.37c1.15-0.61,2.05-1.46,2.71-2.55c0.66-1.09,0.98-2.32,0.98-3.67
			c0-1.35-0.33-2.58-0.98-3.67c-0.66-1.09-1.56-1.94-2.71-2.55c-1.15-0.61-2.44-0.91-3.88-0.91s-2.73,0.3-3.88,0.91
			c-1.15,0.61-2.05,1.46-2.71,2.55c-0.66,1.09-0.98,2.32-0.98,3.67c0,1.35,0.33,2.58,0.98,3.67c0.66,1.09,1.56,1.94,2.71,2.55
			c1.15,0.61,2.44,0.91,3.88,0.91S788.95,698.98,790.1,698.37z"/>
		<path class="st3" d="M801.54,682h9.41c2.3,0,4.34,0.42,6.12,1.26c1.78,0.84,3.17,2.03,4.15,3.57s1.48,3.31,1.48,5.32
			c0,2.01-0.49,3.79-1.48,5.32s-2.37,2.73-4.15,3.57s-3.83,1.26-6.12,1.26h-9.41V682z M810.77,699.11c1.58,0,2.97-0.28,4.17-0.86
			c1.2-0.57,2.12-1.38,2.77-2.44c0.65-1.05,0.97-2.28,0.97-3.67c0-1.39-0.32-2.61-0.97-3.67c-0.65-1.05-1.57-1.87-2.77-2.44
			c-1.2-0.57-2.59-0.86-4.17-0.86h-5.23v13.92H810.77z"/>
		<path class="st3" d="M830.54,701.24c-1.76-0.9-3.15-2.15-4.15-3.74c-1-1.59-1.51-3.38-1.51-5.35c0-1.97,0.5-3.75,1.51-5.35
			c1-1.59,2.39-2.84,4.15-3.74c1.76-0.9,3.74-1.35,5.94-1.35s4.17,0.45,5.94,1.35c1.76,0.9,3.15,2.14,4.15,3.73
			c1,1.58,1.51,3.37,1.51,5.36c0,1.99-0.5,3.78-1.51,5.37c-1.01,1.59-2.39,2.83-4.15,3.73c-1.76,0.9-3.74,1.35-5.94,1.35
			S832.31,702.14,830.54,701.24z M840.36,698.37c1.15-0.61,2.05-1.46,2.71-2.55c0.66-1.09,0.98-2.32,0.98-3.67
			c0-1.35-0.33-2.58-0.98-3.67c-0.66-1.09-1.56-1.94-2.71-2.55c-1.15-0.61-2.44-0.91-3.88-0.91s-2.73,0.3-3.88,0.91
			c-1.15,0.61-2.05,1.46-2.71,2.55c-0.66,1.09-0.98,2.32-0.98,3.67c0,1.35,0.33,2.58,0.98,3.67c0.66,1.09,1.56,1.94,2.71,2.55
			c1.15,0.61,2.44,0.91,3.88,0.91S839.21,698.98,840.36,698.37z"/>
		<path class="st3" d="M870.93,682v20.3h-3.29l-11.87-13.75v13.75h-3.97V682h3.29l11.87,13.75V682H870.93z"/>
		<path class="st3" d="M880.56,685.19h-7.14V682h18.27v3.19h-7.14v17.11h-4V685.19z"/>
		<path class="st3" d="M898,701.24c-1.76-0.9-3.15-2.15-4.15-3.74c-1-1.59-1.51-3.38-1.51-5.35c0-1.97,0.5-3.75,1.51-5.35
			c1-1.59,2.39-2.84,4.15-3.74c1.76-0.9,3.74-1.35,5.94-1.35s4.17,0.45,5.94,1.35c1.76,0.9,3.15,2.14,4.15,3.73
			c1,1.58,1.51,3.37,1.51,5.36c0,1.99-0.5,3.78-1.51,5.37c-1.01,1.59-2.39,2.83-4.15,3.73c-1.76,0.9-3.74,1.35-5.94,1.35
			S899.76,702.14,898,701.24z M907.81,698.37c1.15-0.61,2.05-1.46,2.71-2.55c0.66-1.09,0.98-2.32,0.98-3.67
			c0-1.35-0.33-2.58-0.98-3.67c-0.66-1.09-1.56-1.94-2.71-2.55c-1.15-0.61-2.44-0.91-3.88-0.91s-2.73,0.3-3.88,0.91
			c-1.15,0.61-2.05,1.46-2.71,2.55c-0.66,1.09-0.98,2.32-0.98,3.67c0,1.35,0.33,2.58,0.98,3.67c0.66,1.09,1.56,1.94,2.71,2.55
			c1.15,0.61,2.44,0.91,3.88,0.91S906.66,698.98,907.81,698.37z"/>
		<path class="st3" d="M919.25,682h4v17.11h11.26v3.19h-15.26V682z"/>
		<path class="st3" d="M940.88,701.24c-1.76-0.9-3.15-2.15-4.15-3.74c-1-1.59-1.51-3.38-1.51-5.35c0-1.97,0.5-3.75,1.51-5.35
			c1-1.59,2.39-2.84,4.15-3.74c1.76-0.9,3.74-1.35,5.94-1.35s4.17,0.45,5.94,1.35c1.76,0.9,3.15,2.14,4.15,3.73
			c1,1.58,1.51,3.37,1.51,5.36c0,1.99-0.5,3.78-1.51,5.37c-1.01,1.59-2.39,2.83-4.15,3.73c-1.76,0.9-3.74,1.35-5.94,1.35
			S942.64,702.14,940.88,701.24z M950.69,698.37c1.15-0.61,2.05-1.46,2.71-2.55c0.66-1.09,0.98-2.32,0.98-3.67
			c0-1.35-0.33-2.58-0.98-3.67c-0.66-1.09-1.56-1.94-2.71-2.55c-1.15-0.61-2.44-0.91-3.88-0.91s-2.73,0.3-3.88,0.91
			c-1.15,0.61-2.05,1.46-2.71,2.55c-0.66,1.09-0.98,2.32-0.98,3.67c0,1.35,0.33,2.58,0.98,3.67c0.66,1.09,1.56,1.94,2.71,2.55
			c1.15,0.61,2.44,0.91,3.88,0.91S949.54,698.98,950.69,698.37z"/>
		<path class="st3" d="M976.83,691.92h3.78v8.09c-1.11,0.83-2.4,1.47-3.88,1.91s-2.99,0.67-4.55,0.67c-2.19,0-4.17-0.45-5.94-1.35
			c-1.76-0.9-3.15-2.14-4.15-3.73c-1-1.58-1.51-3.37-1.51-5.37c0-1.99,0.5-3.78,1.51-5.36s2.39-2.83,4.17-3.73
			c1.77-0.9,3.77-1.35,5.98-1.35c1.8,0,3.45,0.28,4.92,0.84s2.72,1.38,3.72,2.46l-2.52,2.32c-1.64-1.55-3.62-2.32-5.94-2.32
			c-1.52,0-2.87,0.3-4.04,0.9c-1.18,0.6-2.1,1.44-2.77,2.52c-0.67,1.08-1,2.32-1,3.71c0,1.35,0.33,2.57,1,3.65
			c0.67,1.08,1.59,1.93,2.77,2.55c1.18,0.62,2.52,0.93,4.01,0.93c1.68,0,3.16-0.35,4.43-1.04V691.92z"/>
		<path class="st3" d="M985.36,682h4v20.3h-4V682z"/>
		<path class="st3" d="M1008.61,697.6h-10.77l-2.12,4.7h-4.12l9.69-20.3h3.94l9.72,20.3h-4.18L1008.61,697.6z M1007.29,694.65
			l-4.06-8.87l-4.03,8.87H1007.29z"/>
	</g>
</g>
<g id="BRILHO_FERRAMENTO_SOBREPOSIÇÃO" class="st2">
</g>
</svg>
